<?xml version="1.0" standalone="no"?>
<!DOCTYPE svg PUBLIC "-//W3C//DTD SVG 20010904//EN"
 "http://www.w3.org/TR/2001/REC-SVG-20010904/DTD/svg10.dtd">
<svg version="1.0" xmlns="http://www.w3.org/2000/svg"
 width="291.000000pt" height="291.000000pt" viewBox="0 0 291.000000 291.000000"
 preserveAspectRatio="xMidYMid meet">
<circle r="48%" cx="50%" cy="50%"
                     fill="white" stroke="none" /> 
<g transform="translate(0.000000,291.000000) scale(0.100000,-0.100000)"
fill="#000000" stroke="none">
<path d="M1316 2880 c-442 -51 -813 -275 -1056 -638 -100 -150 -170 -318 -212
-510 -28 -127 -31 -390 -5 -529 109 -597 555 -1048 1152 -1165 142 -28 364
-29 510 -4 448 80 826 359 1033 763 124 242 176 503 152 758 -19 205 -55 344
-134 511 -198 419 -594 720 -1047 798 -113 20 -295 27 -393 16z m-336 -600
c20 -20 20 -33 20 -825 l0 -806 -25 -24 c-24 -24 -28 -25 -180 -25 -152 0
-156 1 -180 25 l-25 24 0 804 c0 795 0 803 20 825 20 21 29 22 185 22 152 0
167 -2 185 -20z m1325 -5 l25 -24 0 -801 0 -801 -25 -24 c-26 -27 -54 -31 -88
-13 -12 6 -252 186 -534 401 -351 266 -515 396 -519 412 -14 58 -16 56 530
472 568 433 561 429 611 378z"/>
</g>
</svg>
