<?xml version="1.0" standalone="no"?>
<!DOCTYPE svg PUBLIC "-//W3C//DTD SVG 20010904//EN"
 "http://www.w3.org/TR/2001/REC-SVG-20010904/DTD/svg10.dtd">
<svg version="1.0" xmlns="http://www.w3.org/2000/svg"
 width="501.000000pt" height="65.000000pt" viewBox="0 0 501.000000 65.000000"
 preserveAspectRatio="xMidYMid meet">

<g transform="translate(0.000000,65.000000) scale(0.100000,-0.100000)"
fill="#000000" stroke="none">
<path d="M30 335 l0 -295 44 0 c38 0 45 3 50 25 l6 25 42 -27 c31 -21 53 -28
88 -27 99 1 151 67 158 201 4 74 2 88 -22 137 -22 44 -36 59 -71 76 -55 27
-111 20 -155 -17 l-30 -25 0 111 0 111 -55 0 -55 0 0 -295z m247 23 c33 -27
39 -131 12 -192 -14 -29 -53 -45 -89 -36 -50 12 -79 136 -47 200 23 46 86 60
124 28z"/>
<path d="M3210 335 l0 -295 40 0 c33 0 42 4 52 24 l11 25 31 -23 c90 -68 214
-21 245 91 14 49 14 137 0 186 -14 53 -63 105 -110 117 -47 13 -107 0 -134
-30 -10 -11 -21 -20 -24 -20 -3 0 -5 49 -3 110 l3 110 -55 0 -56 0 0 -295z
m224 34 c32 -15 50 -61 50 -126 -2 -87 -54 -138 -112 -111 -36 18 -52 53 -52
120 0 66 13 102 44 116 28 14 40 14 70 1z"/>
<path d="M4570 335 l0 -295 55 0 55 0 0 64 c0 60 2 66 29 85 l30 21 61 -85 62
-85 65 0 c60 0 63 1 51 18 -7 10 -48 63 -90 119 l-77 100 85 92 86 91 -65 0
-66 0 -83 -93 -83 -94 -3 179 -2 178 -55 0 -55 0 0 -295z"/>
<path d="M1015 486 c-116 -55 -170 -175 -133 -300 17 -58 102 -141 159 -156
53 -15 145 -8 186 14 81 41 132 126 133 219 0 102 -49 178 -145 223 -66 31
-134 31 -200 0z m20 -221 l0 -140 -32 -3 -33 -3 0 146 0 146 33 -3 32 -3 0
-140z m230 0 c0 -89 -4 -140 -11 -142 -10 -3 -176 116 -188 136 -7 11 174 152
189 147 6 -1 10 -58 10 -141z"/>
<path d="M703 451 c-23 -11 -48 -29 -55 -40 -18 -29 -25 -26 -32 14 -7 34 -8
35 -51 35 l-45 0 0 -210 0 -210 55 0 55 0 0 103 c0 56 5 119 11 140 12 46 57
77 112 77 l38 0 -3 53 c-4 62 -18 68 -85 38z"/>
<path d="M2235 461 c-72 -18 -105 -54 -105 -116 0 -57 22 -83 106 -121 89 -42
108 -58 94 -85 -9 -15 -22 -19 -64 -19 -29 0 -72 7 -95 15 l-41 14 0 -49 c0
-49 0 -49 38 -57 20 -4 69 -7 107 -7 111 1 166 42 169 123 1 63 -19 87 -113
134 -65 32 -86 47 -86 62 0 17 8 20 47 23 25 2 62 -4 81 -12 l35 -14 17 40 c9
22 14 42 13 44 -2 2 -30 10 -63 19 -63 16 -92 17 -140 6z"/>
<path d="M2685 465 c-5 -2 -22 -6 -37 -9 -74 -16 -128 -103 -128 -206 0 -117
53 -189 155 -210 56 -12 129 -7 178 12 24 9 27 16 27 53 l0 43 -37 -14 c-46
-16 -137 -18 -164 -4 -19 10 -49 59 -49 80 0 6 47 10 135 10 l135 0 0 63 c0
108 -54 168 -160 181 -25 3 -49 4 -55 1z m68 -86 c23 -10 47 -46 47 -69 0 -6
-38 -10 -85 -10 l-85 0 13 33 c13 30 47 57 74 57 7 0 23 -5 36 -11z"/>
<path d="M3820 464 c-14 -3 -44 -12 -67 -20 l-42 -15 17 -35 c14 -31 20 -35
42 -29 14 3 50 9 81 12 51 5 58 3 73 -18 32 -47 23 -56 -65 -63 -44 -4 -97
-14 -117 -24 -71 -33 -91 -132 -41 -196 42 -54 156 -56 214 -5 l33 29 12 -30
c11 -26 18 -30 51 -30 l39 0 0 158 c0 176 -10 212 -65 243 -31 18 -122 30
-165 23z m117 -271 c-8 -51 -39 -75 -90 -71 -45 3 -63 23 -54 60 8 32 39 46
101 47 l49 1 -6 -37z"/>
<path d="M4293 460 c-97 -23 -143 -90 -143 -211 0 -111 23 -159 95 -197 38
-20 149 -22 193 -3 30 13 32 17 32 62 l0 50 -27 -14 c-77 -39 -152 -24 -172
33 -15 45 -14 104 3 144 19 47 65 61 128 42 l47 -14 16 40 c8 22 13 43 10 48
-6 10 -96 30 -128 29 -12 -1 -36 -4 -54 -9z"/>
<path d="M1493 250 l61 -210 61 0 62 0 11 53 c47 205 66 277 72 266 4 -6 23
-81 41 -165 l34 -154 62 0 c50 0 63 3 67 18 3 9 28 96 56 192 28 96 53 183 56
193 5 15 -2 17 -50 17 -43 0 -56 -4 -60 -17 -20 -65 -66 -259 -67 -281 l-1
-27 -8 30 c-5 17 -18 75 -31 130 -40 181 -30 165 -103 165 l-62 0 -32 -133
c-18 -74 -32 -143 -32 -155 0 -12 -4 -22 -10 -22 -5 0 -10 12 -10 28 0 15 -14
84 -32 155 l-32 127 -57 0 -57 0 61 -210z"/>
</g>
</svg>
